<svg width="940" height="375" viewBox="0 0 940 375" fill="none" xmlns="http://www.w3.org/2000/svg">
  <g transform="translate(18 18)">
    <polygon points="140,8 257,76 140,144 23,76" fill="#2A93D8" stroke="#FFFFFF" stroke-width="10" stroke-linejoin="round" />
    <polygon points="23,76 140,144 140,288 23,220" fill="#0B5D95" stroke="#FFFFFF" stroke-width="10" stroke-linejoin="round" />
    <polygon points="257,76 140,144 140,288 257,220" fill="#5FB8F0" stroke="#FFFFFF" stroke-width="10" stroke-linejoin="round" />
    <polygon points="140,8 201,43 140,78 79,43" fill="#0D2F56" stroke="#FFFFFF" stroke-width="10" stroke-linejoin="round" />
    <polygon points="79,43 140,78 140,144 79,108" fill="#2C9CDD" stroke="#FFFFFF" stroke-width="10" stroke-linejoin="round" />
    <polygon points="201,43 140,78 140,144 201,108" fill="#48ACE9" stroke="#FFFFFF" stroke-width="10" stroke-linejoin="round" />
    <polygon points="79,108 140,144 140,214 79,178" fill="#2D8FCE" stroke="#FFFFFF" stroke-width="10" stroke-linejoin="round" />
    <polygon points="201,108 140,144 140,214 201,178" fill="#7FCBF7" stroke="#FFFFFF" stroke-width="10" stroke-linejoin="round" />
    <polygon points="79,178 140,214 140,288 79,252" fill="#16527F" stroke="#FFFFFF" stroke-width="10" stroke-linejoin="round" />
    <polygon points="201,178 140,214 140,288 201,252" fill="#2EA2E6" stroke="#FFFFFF" stroke-width="10" stroke-linejoin="round" />
    <polygon points="23,76 79,108 79,178 23,146" fill="#123E67" stroke="#FFFFFF" stroke-width="10" stroke-linejoin="round" />
    <polygon points="257,76 201,108 201,178 257,146" fill="#1977BA" stroke="#FFFFFF" stroke-width="10" stroke-linejoin="round" />
    <polygon points="23,146 79,178 79,252 23,220" fill="#0A3156" stroke="#FFFFFF" stroke-width="10" stroke-linejoin="round" />
    <polygon points="257,146 201,178 201,252 257,220" fill="#0E4069" stroke="#FFFFFF" stroke-width="10" stroke-linejoin="round" />
    <polygon points="140,144 201,178 140,214 79,178" fill="#6EC8F6" stroke="#FFFFFF" stroke-width="10" stroke-linejoin="round" />
  </g>
  <text x="330" y="160" fill="#0A2A4D" font-family="Segoe UI, Arial, sans-serif" font-size="120" font-weight="700">CubeAI</text>
  <text x="346" y="278" fill="#1F8DDB" font-family="Segoe UI, Arial, sans-serif" font-size="98" font-weight="500">Solutions</text>
</svg>
